<svg width="65" height="64" viewBox="0 0 65 64" fill="none" xmlns="http://www.w3.org/2000/svg">
<path fill-rule="evenodd" clip-rule="evenodd" d="M11.7627 55.604L10.0267 9.37595C9.97207 7.84929 11.1454 6.55729 12.6694 6.46395L43.4801 4.53729L45.8334 5.33329L48.8934 4.19862L51.9814 4.00529C53.5321 3.90662 54.8694 5.08395 54.9694 6.63462C54.9734 6.69462 54.9747 6.75595 54.9747 6.81729V57.1866C54.9734 58.7426 53.7107 60.0026 52.1547 60.0013C52.1134 60.0013 52.0721 60 52.0321 59.9986L14.4507 58.3106C12.9867 58.2453 11.8187 57.0693 11.7627 55.604Z" fill="#FF4081"/>
<path fill-rule="evenodd" clip-rule="evenodd" d="M48.8904 4.19873L43.4811 4.53473L43.2184 10.8827C43.2091 11.1147 43.3891 11.3094 43.6211 11.3201C43.7184 11.3241 43.8131 11.2947 43.8904 11.2361L46.3544 9.3654L48.4371 11.0067C48.6184 11.1507 48.8838 11.1201 49.0264 10.9387C49.0878 10.8601 49.1198 10.7627 49.1171 10.6627L48.8931 4.20006L48.8904 4.19873ZM44.6798 25.4507C43.6918 26.2201 36.3104 26.7441 36.3104 25.6494C36.4678 21.4694 34.5971 21.2867 33.5558 21.2867C32.5704 21.2867 30.9064 21.5841 30.9064 23.8241C30.9064 26.1054 33.3371 27.3934 36.1904 28.9054C40.2424 31.0534 45.1504 33.6547 45.1504 40.1947C45.1504 46.4667 40.0544 49.9281 33.5584 49.9281C26.8531 49.9281 20.9918 47.2147 21.6531 37.8094C21.9131 36.7067 30.4398 36.9694 30.4398 37.8094C30.3331 41.6907 31.2184 42.8321 33.4531 42.8321C35.1691 42.8321 35.9478 41.8854 35.9478 40.2947C35.9478 37.8841 33.4171 36.4614 30.5024 34.8267C26.5571 32.6121 21.9144 30.0054 21.9144 24.0214C21.9144 18.0521 26.0198 14.0707 33.3491 14.0707C40.6784 14.0707 44.6798 17.9921 44.6798 25.4507Z" fill="white"/>
</svg>
